<svg xmlns="http://www.w3.org/2000/svg" viewBox="0 0 207.98 55.59"><defs><style>.cls-1{fill:#fff;}</style></defs><title>Asset 2</title><g id="Layer_2" data-name="Layer 2"><g id="LOGO"><path class="cls-1" d="M71.76,41,67.61,26.39h-.13q.29,3.74.29,5.8V41H62.92V20.71h7.3l4.24,14.41h.11l4.15-14.41H86V41H81v-8.9q0-.69,0-1.54t.19-4.15h-.12L77,41Z"/><path class="cls-1" d="M105.46,33.11a8.33,8.33,0,0,1-2.08,6,7.68,7.68,0,0,1-5.81,2.16,7.53,7.53,0,0,1-5.7-2.21,8.26,8.26,0,0,1-2.12-6,8.21,8.21,0,0,1,2.08-6A7.76,7.76,0,0,1,97.66,25a8.31,8.31,0,0,1,4.1,1,6.73,6.73,0,0,1,2.74,2.83A9.13,9.13,0,0,1,105.46,33.11Zm-10.19,0a7,7,0,0,0,.54,3.09,1.88,1.88,0,0,0,1.82,1.06,1.83,1.83,0,0,0,1.78-1.06,7.24,7.24,0,0,0,.52-3.09,6.87,6.87,0,0,0-.53-3,2.09,2.09,0,0,0-3.6,0A6.71,6.71,0,0,0,95.27,33.11Z"/><path class="cls-1" d="M118.06,41l-4.15-14.62h-.13q.29,3.74.29,5.8V41h-4.86V20.71h7.3l4.24,14.41h.11L125,20.71h7.32V41h-5v-8.9q0-.69,0-1.54t.19-4.15h-.12L123.28,41Z"/><path class="cls-1" d="M151.76,33.11a8.33,8.33,0,0,1-2.08,6,7.68,7.68,0,0,1-5.81,2.16,7.53,7.53,0,0,1-5.7-2.21,8.26,8.26,0,0,1-2.12-6,8.21,8.21,0,0,1,2.08-6A7.76,7.76,0,0,1,144,25a8.31,8.31,0,0,1,4.1,1,6.73,6.73,0,0,1,2.74,2.83A9.12,9.12,0,0,1,151.76,33.11Zm-10.19,0a7,7,0,0,0,.54,3.09,1.88,1.88,0,0,0,1.82,1.06,1.83,1.83,0,0,0,1.78-1.06,7.24,7.24,0,0,0,.52-3.09,6.87,6.87,0,0,0-.53-3,2.09,2.09,0,0,0-3.6,0A6.71,6.71,0,0,0,141.57,33.11Z"/><path class="cls-1" d="M165.12,41V32.43a4.93,4.93,0,0,0-.45-2.37,1.54,1.54,0,0,0-1.45-.8,2.1,2.1,0,0,0-2,1.1,8.3,8.3,0,0,0-.61,3.76V41H155.2V25.28h4.1l.68,1.94h.32a4.3,4.3,0,0,1,1.92-1.67A6.8,6.8,0,0,1,165,25a5.36,5.36,0,0,1,4.06,1.51,5.91,5.91,0,0,1,1.45,4.26V41Z"/><path class="cls-1" d="M182.18,41.29a8.44,8.44,0,0,1-6.1-2.09,7.87,7.87,0,0,1-2.17-6,8.58,8.58,0,0,1,2-6.12A7.53,7.53,0,0,1,181.67,25a7.63,7.63,0,0,1,5.49,1.85,7,7,0,0,1,1.94,5.34v2.42h-9.71a2.69,2.69,0,0,0,1,2.07,3.78,3.78,0,0,0,2.48.75,12,12,0,0,0,2.63-.27,13.05,13.05,0,0,0,2.6-.92v3.9a9.57,9.57,0,0,1-2.64.9A18.27,18.27,0,0,1,182.18,41.29Zm-.32-12.59a2.26,2.26,0,0,0-1.6.6,2.84,2.84,0,0,0-.76,1.9h4.67a2.7,2.7,0,0,0-.65-1.82A2.13,2.13,0,0,0,181.87,28.7Z"/><path class="cls-1" d="M190.61,25.28h5.72l2.67,9a8.86,8.86,0,0,1,.26,1.71h.11a9.44,9.44,0,0,1,.33-1.68l2.74-9.05H208L201.76,42a9.85,9.85,0,0,1-2.94,4.51,7.34,7.34,0,0,1-4.55,1.32,11,11,0,0,1-2.22-.24V43.35a7.65,7.65,0,0,0,1.68.17,2.74,2.74,0,0,0,1.26-.28,2.88,2.88,0,0,0,.94-.78,6.89,6.89,0,0,0,.86-1.66Z"/><path class="cls-1" d="M26.86,13.87A26.59,26.59,0,0,0,24,14l-7.1-3.71a2.9,2.9,0,0,0-4.26,2.57v4.49a2.55,2.55,0,0,0,.12.73,19.7,19.7,0,0,0-7,8.15H4.24A4.24,4.24,0,0,0,0,30.5v4.88a4.24,4.24,0,0,0,4.24,4.24H5.71a19.4,19.4,0,0,0,6.06,7.58v2.94c0,3,1.9,5.46,4.24,5.46h3.15c1.87,0,3.45-1.57,4-3.73a26.25,26.25,0,0,0,6.9.06c.58,2.13,2.15,3.67,4,3.67h3.15c2.34,0,4.24-2.45,4.24-5.46V47.55C46.31,44,49.39,38.82,49.39,33,49.39,22.45,39.28,13.87,26.86,13.87ZM41.14,44a19,19,0,0,1-2.67,2s0,.08,0,.12v4.06a1.47,1.47,0,0,1-1.26,1.62H34.07a1.11,1.11,0,0,1-.83-.41,1.84,1.84,0,0,1-.42-1.2V48.37a23,23,0,0,1-3,.57,22,22,0,0,1-6.44-.06,22.7,22.7,0,0,1-3-.65v2.2a2.15,2.15,0,0,1-.18.86,1.25,1.25,0,0,1-1.08.84H16c-.69,0-1.26-.76-1.26-1.7V46.16a2.23,2.23,0,0,1,.05-.47,18.68,18.68,0,0,1-2.59-2,16.15,16.15,0,0,1-3.34-4.33A14.11,14.11,0,0,1,7.8,36.55a1.23,1.23,0,0,1-.41.08H4.24A1.26,1.26,0,0,1,3,35.38V30.5a1.26,1.26,0,0,1,1.26-1.26H7.38a1.24,1.24,0,0,1,.44.09,14.14,14.14,0,0,1,1.1-2.77A17.22,17.22,0,0,1,15.27,20l.19-.11a.37.37,0,0,1-.06-.2v-6.3a.38.38,0,0,1,.19-.33V13l.07,0a.37.37,0,0,1,.31,0l6.73,3.55c.41.22,1.27.34,4.16.23a17.71,17.71,0,0,1,2.87.19c9.42,1.15,16.68,7.86,16.68,16A14.7,14.7,0,0,1,41.14,44Z"/><path class="cls-1" d="M15.72,28.22a1.23,1.23,0,0,1,1.22,1.12h1a2.23,2.23,0,0,0-4.45,0h1A1.23,1.23,0,0,1,15.72,28.22Z"/><line class="cls-1" x1="21.65" y1="22.2" x2="30.59" y2="22.2"/><rect class="cls-1" x="21.65" y="21.86" width="8.94" height="0.67"/><circle class="cls-1" cx="26.12" cy="2.57" r="2.57"/></g></g></svg>