<svg xmlns="http://www.w3.org/2000/svg" viewBox="0 0 245.27 167.61"><defs><style>.cls-1{fill:#fff;}</style></defs><title>Asset 1</title><g id="Layer_2" data-name="Layer 2"><g id="LOGO"><path class="cls-1" d="M15,156.06l-7-24.72H7.72q.49,6.32.49,9.81v14.91H0V121.73H12.35l7.16,24.37h.19l7-24.37H39.09v34.33H30.57V141q0-1.17,0-2.61t.32-7h-.21l-6.93,24.68Z"/><path class="cls-1" d="M71.93,142.7q0,6.53-3.51,10.18t-9.83,3.65A12.73,12.73,0,0,1,49,152.8q-3.58-3.73-3.58-10.1t3.51-10.11q3.51-3.6,9.85-3.6a14,14,0,0,1,6.93,1.67,11.39,11.39,0,0,1,4.64,4.78A15.43,15.43,0,0,1,71.93,142.7Zm-17.23,0a11.82,11.82,0,0,0,.92,5.22,3.18,3.18,0,0,0,3.08,1.8,3.09,3.09,0,0,0,3-1.8,12.24,12.24,0,0,0,.88-5.22,11.61,11.61,0,0,0-.89-5.14,3.53,3.53,0,0,0-6.08,0A11.35,11.35,0,0,0,54.7,142.7Z"/><path class="cls-1" d="M93.24,156.06l-7-24.72H86q.49,6.32.49,9.81v14.91H78.28V121.73H90.63l7.16,24.37H98l7-24.37h12.37v34.33h-8.52V141q0-1.17,0-2.61t.32-7H109l-6.93,24.68Z"/><path class="cls-1" d="M150.21,142.7q0,6.53-3.51,10.18t-9.83,3.65a12.73,12.73,0,0,1-9.64-3.73q-3.58-3.73-3.58-10.1t3.51-10.11q3.51-3.6,9.85-3.6a14,14,0,0,1,6.93,1.67,11.39,11.39,0,0,1,4.64,4.78A15.42,15.42,0,0,1,150.21,142.7Zm-17.23,0a11.82,11.82,0,0,0,.92,5.22,3.18,3.18,0,0,0,3.08,1.8,3.09,3.09,0,0,0,3-1.8,12.24,12.24,0,0,0,.88-5.22,11.61,11.61,0,0,0-.89-5.14,3.53,3.53,0,0,0-6.08,0A11.35,11.35,0,0,0,133,142.7Z"/><path class="cls-1" d="M172.81,156.06V141.55a8.33,8.33,0,0,0-.76-4,2.61,2.61,0,0,0-2.45-1.35,3.55,3.55,0,0,0-3.36,1.85q-1,1.85-1,6.36v11.65H156v-26.6H163l1.15,3.29h.54a7.27,7.27,0,0,1,3.25-2.82,11.5,11.5,0,0,1,4.78-.94,9.06,9.06,0,0,1,6.87,2.56q2.45,2.56,2.45,7.21v17.3Z"/><path class="cls-1" d="M201.66,156.53q-6.64,0-10.32-3.53t-3.67-10.06q0-6.74,3.4-10.34t9.72-3.6q6,0,9.29,3.13t3.28,9v4.08H196.94a4.55,4.55,0,0,0,1.63,3.5,6.39,6.39,0,0,0,4.19,1.27,20.26,20.26,0,0,0,4.45-.46,22.07,22.07,0,0,0,4.4-1.56v6.6a16.17,16.17,0,0,1-4.46,1.53A30.89,30.89,0,0,1,201.66,156.53Zm-.54-21.3a3.82,3.82,0,0,0-2.71,1,4.8,4.8,0,0,0-1.28,3.21H205a4.57,4.57,0,0,0-1.09-3.08A3.6,3.6,0,0,0,201.12,135.24Z"/><path class="cls-1" d="M215.9,129.46h9.67l4.51,15.26a15,15,0,0,1,.45,2.89h.19a16,16,0,0,1,.56-2.84l4.63-15.31h9.37l-10.52,28.29q-2,5.4-5,7.63a12.41,12.41,0,0,1-7.69,2.23,18.51,18.51,0,0,1-3.76-.4V160a12.93,12.93,0,0,0,2.84.28,4.63,4.63,0,0,0,2.14-.47,4.87,4.87,0,0,0,1.6-1.33,11.65,11.65,0,0,0,1.46-2.81Z"/><path class="cls-1" d="M121.29,23.77a45.58,45.58,0,0,0-5,.28l-12.17-6.35a5,5,0,0,0-7.3,4.4v7.7a4.37,4.37,0,0,0,.2,1.25A33.77,33.77,0,0,0,85.14,45H82.52a7.27,7.27,0,0,0-7.26,7.26v8.36a7.27,7.27,0,0,0,7.26,7.26H85a33.25,33.25,0,0,0,10.39,13v5c0,5.16,3.26,9.36,7.26,9.36h5.39c3.2,0,5.92-2.68,6.88-6.39a45,45,0,0,0,11.83.1c1,3.66,3.68,6.29,6.85,6.29H139c4,0,7.26-4.2,7.26-9.36V81.49c8.31-6,13.6-15,13.6-24.94C159.91,38.47,142.58,23.77,121.29,23.77ZM145.76,75.4a32.52,32.52,0,0,1-4.57,3.37c0,.07,0,.13,0,.2v7c0,1.53-1,2.77-2.15,2.77h-5.39a1.9,1.9,0,0,1-1.43-.71,3.15,3.15,0,0,1-.73-2.06v-3a39.34,39.34,0,0,1-5.11,1,37.67,37.67,0,0,1-11-.1,38.91,38.91,0,0,1-5.11-1.11v3.77a3.68,3.68,0,0,1-.3,1.47,2.13,2.13,0,0,1-1.85,1.45H102.7c-1.19,0-2.15-1.31-2.15-2.92V79.11a3.83,3.83,0,0,1,.09-.8,32,32,0,0,1-4.45-3.47,27.68,27.68,0,0,1-5.73-7.42,24.18,24.18,0,0,1-1.85-4.76,2.11,2.11,0,0,1-.71.14H82.52a2.15,2.15,0,0,1-2.15-2.15V52.27a2.16,2.16,0,0,1,2.15-2.15h5.39a2.12,2.12,0,0,1,.76.15,24.24,24.24,0,0,1,1.89-4.75A29.52,29.52,0,0,1,101.44,34.3l.33-.19a.64.64,0,0,1-.11-.35V23a.66.66,0,0,1,.32-.57v-.1l.12.06a.63.63,0,0,1,.54,0l11.54,6.09c.7.38,2.17.59,7.12.39a30.35,30.35,0,0,1,4.92.33c16.15,2,28.59,13.47,28.59,27.34C154.8,63.83,151.35,70.45,145.76,75.4Z"/><path class="cls-1" d="M102.2,48.37a2.11,2.11,0,0,1,2.09,1.91H106a3.82,3.82,0,0,0-7.62,0h1.73A2.11,2.11,0,0,1,102.2,48.37Z"/><line class="cls-1" x1="112.36" y1="38.04" x2="127.69" y2="38.04"/><rect class="cls-1" x="112.36" y="37.47" width="15.33" height="1.15"/><circle class="cls-1" cx="120.03" cy="4.41" r="4.41"/></g></g></svg>